<svg width="116" height="60" viewBox="0 0 116 60" fill="none" xmlns="http://www.w3.org/2000/svg">
<rect x="0.629846" y="1.17593" width="114.561" height="58.2682" rx="9.38217" fill="#F6F6F6" stroke="#DDDFDD" stroke-width="0.987597"/>
<path fill-rule="evenodd" clip-rule="evenodd" d="M71.8743 30.2169C71.8743 29.1619 71.787 28.1475 71.625 27.1736H58.7112V32.9289H66.0905C65.7727 34.7888 64.8066 36.3645 63.3544 37.4196V41.1528H67.7857C70.3785 38.5625 71.8743 34.7482 71.8743 30.2169Z" fill="#4285F4"/>
<path fill-rule="evenodd" clip-rule="evenodd" d="M58.7114 44.7573C62.4135 44.7573 65.5173 43.425 67.7859 41.1526L63.3546 37.4194C62.1268 38.3121 60.5562 38.8396 58.7114 38.8396C55.1402 38.8396 52.1174 36.2223 51.0392 32.7056H46.4583V36.5605C48.7145 41.4231 53.3514 44.7573 58.7114 44.7573Z" fill="#34A853"/>
<path fill-rule="evenodd" clip-rule="evenodd" d="M51.0392 32.7056C50.7649 31.8129 50.6091 30.8593 50.6091 29.8786C50.6091 28.898 50.7649 27.9444 51.0392 27.0517V23.1968H46.4583C45.5296 25.2054 44.9999 27.4778 44.9999 29.8786C44.9999 32.2795 45.5296 34.5519 46.4583 36.5605L51.0392 32.7056Z" fill="#FBBC05"/>
<path fill-rule="evenodd" clip-rule="evenodd" d="M58.7114 20.9176C60.7245 20.9176 62.5319 21.6683 63.9529 23.1427L67.8856 18.8752C65.511 16.4743 62.4073 15 58.7114 15C53.3514 15 48.7145 18.3342 46.4583 23.1968L51.0392 27.0517C52.1174 23.5349 55.1402 20.9176 58.7114 20.9176Z" fill="#EA4335"/>
</svg>
