<svg width="23" height="30" viewBox="0 0 23 30" fill="none" xmlns="http://www.w3.org/2000/svg">
<path d="M11.5975 6.86707C12.847 6.86707 14.4132 5.95903 15.346 4.7483C16.1907 3.65109 16.8066 2.11877 16.8066 0.586444C16.8066 0.378351 16.789 0.170258 16.7538 0C15.3636 0.0567527 13.6917 1.00263 12.6886 2.27011C11.8967 3.2349 11.1751 4.7483 11.1751 6.29954C11.1751 6.52655 11.2103 6.75356 11.2279 6.82924C11.3159 6.84815 11.4567 6.86707 11.5975 6.86707ZM7.19788 29.7573C8.90493 29.7573 9.66166 28.5277 11.7911 28.5277C13.9557 28.5277 14.4308 29.7195 16.3315 29.7195C18.1969 29.7195 19.4464 27.8656 20.6255 26.0495C21.9454 23.9685 22.4909 21.9254 22.5261 21.8309C22.4029 21.793 18.8304 20.2229 18.8304 15.8151C18.8304 11.9937 21.6462 10.2722 21.8046 10.1398C19.9391 7.26434 17.1058 7.18867 16.3315 7.18867C14.2373 7.18867 12.5302 8.55073 11.4567 8.55073C10.2952 8.55073 8.76414 7.26434 6.9515 7.26434C3.50221 7.26434 0.00012207 10.329 0.00012207 16.1178C0.00012207 19.7121 1.30241 23.5145 2.90386 25.9738C4.27654 28.0547 5.47323 29.7573 7.19788 29.7573Z" fill="#000100"/>
</svg>
