<svg width="28" height="30" viewBox="0 0 28 30" fill="none" xmlns="http://www.w3.org/2000/svg">
<path fill-rule="evenodd" clip-rule="evenodd" d="M27.4288 14.9696C27.4288 6.7021 21.2886 0 13.7143 0C6.14007 0 -9.15527e-05 6.7021 -9.15527e-05 14.9696C-9.15527e-05 22.4413 5.01508 28.6343 11.5715 29.7573V19.2967H8.08928V14.9696H11.5715V11.6716C11.5715 7.91984 13.6189 5.84749 16.7516 5.84749C18.2521 5.84749 19.8216 6.13987 19.8216 6.13987V9.82379H18.0922C16.3885 9.82379 15.8572 10.9777 15.8572 12.1615V14.9696H19.6608L19.0528 19.2967H15.8572V29.7573C22.4136 28.6343 27.4288 22.4413 27.4288 14.9696Z" fill="#1778F2"/>
</svg>
