<svg width="25" height="25" viewBox="0 0 25 25" fill="none" xmlns="http://www.w3.org/2000/svg">
<path fill-rule="evenodd" clip-rule="evenodd" d="M13.2757 14.6788C11.7679 14.6788 10.5449 13.4565 10.5449 11.948C10.5449 11.1837 10.8577 10.4946 11.3637 9.99826C11.5516 9.81396 11.5545 9.51227 11.3702 9.3244C11.1859 9.13654 10.8842 9.13365 10.6963 9.31795C10.0154 9.98598 9.59183 10.9171 9.59183 11.948C9.59183 13.983 11.2417 15.6318 13.2757 15.6318C14.3056 15.6318 15.2376 15.2083 15.9057 14.5273C16.09 14.3395 16.0871 14.0378 15.8993 13.8535C15.7114 13.6692 15.4097 13.6721 15.2254 13.8599C14.7291 14.3659 14.0392 14.6788 13.2757 14.6788Z" fill="#677185"/>
<path fill-rule="evenodd" clip-rule="evenodd" d="M5.7204 15.8935C7.2519 17.7743 9.68356 19.7061 13.1932 19.7061C15.5735 19.7061 17.4682 18.8151 18.9214 17.6525C19.1247 17.4898 19.1567 17.1944 18.9928 16.9926C18.829 16.7908 18.5314 16.7591 18.3281 16.9217C17.0083 17.9776 15.317 18.7675 13.1932 18.7675C10.0749 18.7675 7.88688 17.061 6.45572 15.3035C5.74118 14.426 5.22481 13.5462 4.88714 12.885C4.7186 12.555 4.59535 12.2809 4.51479 12.0909C4.49474 12.0436 4.47735 12.0016 4.46258 11.9652C4.49865 11.8809 4.54939 11.7661 4.6151 11.6262C4.76597 11.305 4.99515 10.8525 5.30598 10.3335C5.92968 9.2921 6.8718 8.00025 8.15463 6.95922C8.35677 6.79518 8.38667 6.49953 8.22142 6.29887C8.05617 6.09821 7.75833 6.06853 7.55619 6.23257C6.15893 7.36647 5.15029 8.7568 4.49325 9.85386C4.16372 10.4041 3.92003 10.8849 3.75814 11.2296C3.67714 11.4021 3.61647 11.5408 3.57563 11.6375C3.55521 11.6858 3.53974 11.7237 3.52916 11.75C3.52386 11.7632 3.51979 11.7735 3.51694 11.7808L3.51356 11.7895L3.51255 11.7921L3.51221 11.7929L3.51209 11.7933C3.51204 11.7934 3.51199 11.7935 3.95389 11.9603C3.50855 12.1178 3.50863 12.118 3.50871 12.1182L3.50892 12.1188L3.50954 12.1205L3.51149 12.1258C3.51312 12.1303 3.51539 12.1365 3.51833 12.1443C3.5242 12.16 3.53269 12.1824 3.54386 12.2111C3.56619 12.2685 3.59922 12.351 3.6433 12.455C3.73144 12.6629 3.86398 12.9573 4.04381 13.3094C4.40289 14.0126 4.95361 14.9519 5.7204 15.8935ZM3.95389 11.9603L3.50855 12.1178C3.47085 12.0127 3.47207 11.8978 3.51199 11.7935L3.95389 11.9603Z" fill="#677185"/>
<path fill-rule="evenodd" clip-rule="evenodd" d="M19.5297 16.1928C19.7226 16.3636 20.019 16.3474 20.1917 16.1566C21.0986 15.1546 21.7493 14.1112 22.173 13.3204C22.3852 12.9243 22.5416 12.5896 22.6454 12.3524C22.6974 12.2337 22.7363 12.1392 22.7626 12.0735C22.7757 12.0407 22.7857 12.015 22.7925 11.997C22.796 11.988 22.7986 11.981 22.8005 11.9759L22.8028 11.9699L22.8035 11.968L22.8037 11.9673L22.8038 11.9671C22.8038 11.9669 22.8039 11.9668 22.3631 11.8088C22.8014 11.6441 22.8013 11.6439 22.8012 11.6437L22.8004 11.6415L22.7983 11.6363C22.7966 11.6319 22.7942 11.6258 22.7911 11.618C22.7849 11.6025 22.776 11.5803 22.7642 11.5518C22.7407 11.4949 22.7059 11.4129 22.6597 11.3095C22.5673 11.1028 22.429 10.8099 22.2429 10.4595C21.8714 9.75977 21.3067 8.82496 20.5336 7.88784C18.9922 6.01918 16.576 4.08952 13.1788 4.08952C11.6466 4.08952 10.3088 4.48395 9.16105 5.09037C8.93265 5.21105 8.84639 5.49204 8.96838 5.71798C9.09037 5.94392 9.37442 6.02925 9.60282 5.90857C10.6289 5.36645 11.816 5.01712 13.1788 5.01712C16.18 5.01712 18.356 6.7152 19.8071 8.47429C20.5303 9.35104 21.062 10.2301 21.4128 10.8908C21.5879 11.2206 21.7171 11.4945 21.8021 11.6846C21.8236 11.7327 21.8422 11.7754 21.8581 11.8123C21.8383 11.86 21.814 11.9174 21.785 11.9837C21.6896 12.2016 21.5437 12.5141 21.3444 12.886C20.9451 13.6313 20.3354 14.6071 19.4931 15.5379C19.3204 15.7287 19.3367 16.0219 19.5297 16.1928ZM22.3631 11.8088L22.8014 11.6441C22.8412 11.7479 22.8421 11.8624 22.8039 11.9668L22.3631 11.8088Z" fill="#677185"/>
<path fill-rule="evenodd" clip-rule="evenodd" d="M16.1559 12.9093C16.3996 12.9534 16.6305 12.7764 16.6715 12.5139C16.703 12.3126 16.7209 12.1044 16.7209 11.8897C16.7209 9.83217 15.1721 8.1632 13.2606 8.1632C13.0612 8.1632 12.8678 8.18246 12.6809 8.21634C12.4372 8.26053 12.2728 8.50916 12.3138 8.77168C12.3549 9.0342 12.5857 9.2112 12.8295 9.16701C12.9714 9.1413 13.1149 9.12725 13.2606 9.12725C14.6775 9.12725 15.8257 10.3644 15.8257 11.8897C15.8257 12.0465 15.8127 12.2011 15.7888 12.3539C15.7477 12.6164 15.9121 12.8651 16.1559 12.9093Z" fill="#677185"/>
<path fill-rule="evenodd" clip-rule="evenodd" d="M9.59183 11.948C9.59183 13.9829 11.2408 15.6318 13.2757 15.6318C14.3065 15.6318 15.2377 15.2083 15.9057 14.5273C16.09 14.3395 16.0871 14.0378 15.8993 13.8535C15.7114 13.6692 15.4097 13.6721 15.2254 13.8599C14.729 14.3659 14.04 14.6788 13.2757 14.6788C11.7671 14.6788 10.5449 13.4566 10.5449 11.948C10.5449 11.1845 10.8578 10.4946 11.3637 9.99826C11.5516 9.81396 11.5545 9.51227 11.3702 9.3244C11.1859 9.13654 10.8842 9.13365 10.6963 9.31795C10.0153 9.98603 9.59183 10.9181 9.59183 11.948Z" fill="#677185"/>
<path fill-rule="evenodd" clip-rule="evenodd" d="M21.3381 19.9095C21.5193 19.7283 21.5193 19.4344 21.3381 19.2532L5.97082 3.88598C5.7896 3.70475 5.49577 3.70475 5.31454 3.88598C5.13331 4.06721 5.13331 4.36104 5.31454 4.54226L20.6818 19.9095C20.863 20.0907 21.1568 20.0907 21.3381 19.9095Z" fill="#677185"/>
</svg>
